<svg xmlns="http://www.w3.org/2000/svg" style="display: none;">
  <!-- Crop Farming Icon -->
  <symbol id="icon-crop" viewBox="0 0 24 24" fill="none">
    <path d="M4 7.8C4 7.8 5.5 7 8 7s4 0.8 4 0.8M4 16.2c0 0 1.5-0.8 4-0.8s4 0.8 4 0.8" stroke="#38b000" stroke-width="2" stroke-linecap="round"/>
    <path d="M8 20V4M8 20c2 0 4-0.8 4-0.8V8M20 12c0 0-1.5 0.8-4 0.8s-4-0.8-4-0.8" stroke="#38b000" stroke-width="2" stroke-linecap="round"/>
    <path d="M16 4v16" stroke="#38b000" stroke-width="2" stroke-linecap="round"/>
    <path d="M4 12h16" stroke="#38b000" stroke-width="2" stroke-linecap="round"/>
  </symbol>

  <!-- Livestock Farming Icon -->
  <symbol id="icon-livestock" viewBox="0 0 24 24" fill="none">
    <path d="M6 11c0-4 2-7 6-7s6 3 6 7M8 8.5c-2 0-4 2.5-4 5.5 0 1 0 4 1 5 0 0 1 1 2 1" stroke="#38b000" stroke-width="2" stroke-linecap="round"/>
    <path d="M18 8.5c2 0 4 2.5 4 5.5 0 1 0 4-1 5 0 0-1 1-2 1" stroke="#38b000" stroke-width="2" stroke-linecap="round"/>
    <path d="M4 13.5C4 18 8 20 12 20s8-2 8-6.5" stroke="#38b000" stroke-width="2" stroke-linecap="round"/>
    <path d="M12 13a1 1 0 1 0 0-2 1 1 0 0 0 0 2Z" fill="#38b000"/>
    <path d="M9 11a1 1 0 1 0 0-2 1 1 0 0 0 0 2Z" fill="#38b000"/>
    <path d="M15 11a1 1 0 1 0 0-2 1 1 0 0 0 0 2Z" fill="#38b000"/>
  </symbol>

  <!-- Mixed Farming Icon -->
  <symbol id="icon-mixed-farm" viewBox="0 0 24 24" fill="none">
    <path d="M4 16.5a3.5 3.5 0 0 1 3.5-3.5H5a3 3 0 0 1 0-6h4c0-2 2-5 7-5 4 0 6 3 6 5" stroke="#38b000" stroke-width="2" stroke-linecap="round"/>
    <path d="M14 10h5.5a2.5 2.5 0 0 1 0 5H17" stroke="#38b000" stroke-width="2" stroke-linecap="round"/>
    <path d="M7 19a2 2 0 1 1-4 0 2 2 0 0 1 4 0Z" stroke="#38b000" stroke-width="2"/>
    <path d="M14 17a2 2 0 1 1-4 0 2 2 0 0 1 4 0Z" stroke="#38b000" stroke-width="2"/>
    <path d="M18 19a2 2 0 1 1-4 0 2 2 0 0 1 4 0Z" stroke="#38b000" stroke-width="2"/>
  </symbol>

  <!-- ROI Icon -->
  <symbol id="icon-roi" viewBox="0 0 24 24" fill="none">
    <path d="M12 8v8M8 12h8" stroke="#38b000" stroke-width="2" stroke-linecap="round" stroke-linejoin="round"/>
    <path d="M12 22c5.523 0 10-4.477 10-10S17.523 2 12 2 2 6.477 2 12s4.477 10 10 10Z" stroke="#38b000" stroke-width="2" stroke-linecap="round" stroke-linejoin="round"/>
  </symbol>

  <!-- Investment Icon -->
  <symbol id="icon-investment" viewBox="0 0 24 24" fill="none">
    <path d="M17 10h3c1.1 0 2 .9 2 2v7c0 1.1-.9 2-2 2H4c-1.1 0-2-.9-2-2v-7c0-1.1.9-2 2-2h3" stroke="#38b000" stroke-width="2" stroke-linecap="round" stroke-linejoin="round"/>
    <path d="M12 17a2 2 0 1 0 0-4 2 2 0 0 0 0 4Z" stroke="#38b000" stroke-width="2" stroke-linecap="round" stroke-linejoin="round"/>
    <path d="M17 8V6c0-1.1-.9-2-2-2H9c-1.1 0-2 .9-2 2v2" stroke="#38b000" stroke-width="2" stroke-linecap="round" stroke-linejoin="round"/>
  </symbol>

  <!-- Risk Icon -->
  <symbol id="icon-risk" viewBox="0 0 24 24" fill="none">
    <path d="M12 22c5.523 0 10-4.477 10-10S17.523 2 12 2 2 6.477 2 12s4.477 10 10 10Z" stroke="#38b000" stroke-width="2" stroke-linecap="round" stroke-linejoin="round"/>
    <path d="M12 8v6M12 16h.01" stroke="#38b000" stroke-width="2" stroke-linecap="round" stroke-linejoin="round"/>
  </symbol>

  <!-- Dashboard Icon -->
  <symbol id="icon-dashboard" viewBox="0 0 24 24" fill="none">
    <path d="M3 3h7v9H3V3ZM14 3h7v5h-7V3ZM14 12h7v9h-7v-9ZM3 16h7v6H3v-6Z" stroke="#38b000" stroke-width="2" stroke-linecap="round" stroke-linejoin="round"/>
  </symbol>

  <!-- Chart Icon -->
  <symbol id="icon-chart" viewBox="0 0 24 24" fill="none">
    <path d="M21 21H4c-.55 0-1-.45-1-1V3" stroke="#38b000" stroke-width="2" stroke-linecap="round" stroke-linejoin="round"/>
    <path d="M7 14l4-4 4 4 6-6" stroke="#38b000" stroke-width="2" stroke-linecap="round" stroke-linejoin="round"/>
  </symbol>

  <!-- Farm Icon -->
  <symbol id="icon-farm" viewBox="0 0 24 24" fill="none">
    <path d="M3 9v12h18V9M21 9 12 2 3 9" stroke="#38b000" stroke-width="2" stroke-linecap="round" stroke-linejoin="round"/>
    <path d="M12 21v-9M9 12v-2M15 12v-2" stroke="#38b000" stroke-width="2" stroke-linecap="round" stroke-linejoin="round"/>
  </symbol>
</svg>
