<svg width="120" height="40" viewBox="0 0 120 40" fill="none" xmlns="http://www.w3.org/2000/svg">
  <!-- Leaf shape -->
  <path d="M24 14C24 11.8 23.2 9.8 21.8 8.4C20.4 7 18.4 6.2 16.2 6.2C11.4 6.2 7.6 10 7.6 14.8C7.6 16.8 8.4 19 9.8 20.4L24 34.6L38.2 20.4C39.6 19 40.4 16.8 40.4 14.8C40.4 10 36.6 6.2 31.8 6.2C29.6 6.2 27.6 7 26.2 8.4C24.8 9.8 24 11.8 24 14Z" fill="#38b000"/>
  
  <!-- Horizon/ground line -->
  <path d="M44 36H4V34H44V36Z" fill="#38b000"/>
  
  <!-- Farm building -->
  <path d="M11 36H3V25H11V36Z" fill="#38b000"/>
  <path d="M45 36H37V25H45V36Z" fill="#38b000"/>
  <path d="M28 36H20V23H28V36Z" fill="#38b000"/>
  
  <!-- Text part of the logo -->
  <text x="55" y="17" font-family="Arial, sans-serif" font-size="10" font-weight="bold" fill="#ffffff">SMART AGRI</text>
  <text x="55" y="30" font-family="Arial, sans-serif" font-size="12" font-weight="bold" fill="#38b000">INVESTMENT</text>
</svg>
